<?xml version="1.0" encoding="utf-8"?>
<!-- Generator: Adobe Illustrator 25.0.1, SVG Export Plug-In . SVG Version: 6.00 Build 0)  -->
<svg version="1.1" id="Layer_1" xmlns="http://www.w3.org/2000/svg" xmlns:xlink="http://www.w3.org/1999/xlink" x="0px" y="0px"
	 viewBox="0 0 314.7 80.4" style="enable-background:new 0 0 314.7 80.4;" xml:space="preserve">
<style type="text/css">
	.st0{fill:#00548A;}
	.st1{fill:#F68932;}
</style>
<g id="Group_98" transform="translate(-15.294 -7.298)">
	<path id="Path_49" class="st0" d="M96.5,9.1l-42,18.5l-4.7,4.9L43,13.6L29.4,8.4l-14.1,5.9v53.8l14.3,5.5l7.3-5.4l4.7,6.5L52,67.9
		v13.7l13.9,6l14.6-6.9v-3.3l4.2,1.2l14.5-7.5V32.7l9.2-4.1V14.3L96.5,9.1z M65.3,85.7l-12.2-5.3l0-22.1L41.9,71.2L29,51.5v19.6
		L18,66.8l0.1-51.2l10.4,3.8l12.7,30.9l12.8-19.9l11.3,3.9V85.7z M84.7,76.9l-4.1-1.5V41l4.1-1.8V76.9z"/>
	<g id="Group_98-2" transform="translate(111.887 20.578)">
		<path id="Path_50" class="st0" d="M213.3,25.6v-0.4C132.4,31,75.8,29.3,0,24.8V25C36,29.6,132.4,35.9,213.3,25.6"/>
		<path id="Path_51" class="st0" d="M43.3,20.8h-3.2V4.6l-7.7,16.2h-2.5L22.3,4.6v16.2h-3.2V0.6h4.6l7.4,15.7l7.3-15.7h4.8V20.8z"/>
		<path id="Path_52" class="st0" d="M43.3,20.8h-3.2V4.6l-7.7,16.2h-2.5L22.3,4.6v16.2h-3.2V0.6h4.6l7.4,15.7l7.3-15.7h4.8V20.8z"/>
		<rect id="Rectangle_330" x="46" y="0.6" class="st0" width="3.2" height="20.2"/>
		<rect id="Rectangle_331" x="46" y="0.6" class="st0" width="3.2" height="20.2"/>
		<path id="Path_53" class="st0" d="M67.8,20.8h-5.6c-7,0-10.5-3.4-10.5-10.1c0-6.7,3.5-10.1,10.5-10.1h5.6v2.9h-5.6
			c-1.7-0.1-3.4,0.3-4.9,1.1c-1.7,1.1-2.5,3.2-2.5,6.1c0,3,0.8,5,2.5,6c1.5,0.9,3.2,1.3,4.9,1.2h5.6L67.8,20.8z"/>
		<path id="Path_54" class="st0" d="M67.8,20.8h-5.6c-7,0-10.5-3.4-10.5-10.1c0-6.7,3.5-10.1,10.5-10.1h5.6v2.9h-5.6
			c-1.7-0.1-3.4,0.3-4.9,1.1c-1.7,1.1-2.5,3.2-2.5,6.1c0,3,0.8,5,2.5,6c1.5,0.9,3.2,1.3,4.9,1.2h5.6L67.8,20.8z"/>
		<path id="Path_55" class="st0" d="M87.7,20.8h-3.4l-4.1-8.3h-6.7v8.3h-3V0.6H80c1.6-0.1,3.2,0.3,4.6,1.1c1.8,1,2.9,2.9,2.8,4.9
			c0,2.6-1.4,4.5-4.1,5.4L87.7,20.8z M84.4,6.6c0-2.1-1.5-3.1-4.4-3.1h-6.5v6.3H80C82.9,9.8,84.4,8.7,84.4,6.6"/>
		<path id="Path_56" class="st0" d="M87.7,20.8h-3.4l-4.1-8.3h-6.7v8.3h-3V0.6H80c1.6-0.1,3.2,0.3,4.6,1.1c1.8,1,2.9,2.9,2.8,4.9
			c0,2.6-1.4,4.5-4.1,5.4L87.7,20.8z M84.4,6.6c0-2.1-1.5-3.1-4.4-3.1h-6.5v6.3H80C82.9,9.8,84.4,8.7,84.4,6.6"/>
		<path id="Path_57" class="st0" d="M111,10.7c0,2.9-1.1,5.6-3.2,7.6c-2,2.1-4.7,3.2-7.5,3.1c-5.8,0-10.6-4.7-10.6-10.5
			c0-0.1,0-0.1,0-0.2C89.6,4.9,94.3,0.1,100.1,0c0.1,0,0.1,0,0.2,0c2.8-0.1,5.6,1.1,7.5,3.1C109.9,5.1,111.1,7.9,111,10.7
			 M107.8,10.7c0-2-0.7-4-2.1-5.5c-1.3-1.5-3.3-2.4-5.3-2.4c-2.1,0-4.1,0.9-5.4,2.4c-3,3.1-3,8,0,11.1c1.4,1.5,3.4,2.3,5.4,2.3
			c2,0,3.9-0.8,5.3-2.3C107.1,14.8,107.9,12.8,107.8,10.7"/>
		<path id="Path_58" class="st0" d="M111,10.7c0,2.9-1.1,5.6-3.2,7.6c-2,2.1-4.7,3.2-7.5,3.1c-5.8,0-10.6-4.7-10.6-10.5
			c0-0.1,0-0.1,0-0.2C89.6,4.9,94.3,0.1,100.1,0c0.1,0,0.1,0,0.2,0c2.8-0.1,5.6,1.1,7.5,3.1C109.9,5.1,111.1,7.9,111,10.7
			 M107.8,10.7c0-2-0.7-4-2.1-5.5c-1.3-1.5-3.3-2.4-5.3-2.4c-2.1,0-4.1,0.9-5.4,2.4c-3,3.1-3,8,0,11.1c1.4,1.5,3.4,2.3,5.4,2.3
			c2,0,3.9-0.8,5.3-2.3C107.1,14.8,107.9,12.8,107.8,10.7"/>
		<path id="Path_59" class="st0" d="M136.2,3.5h-8.6v17.3h-3.1V3.5h-5.3V0.6h17V3.5z"/>
		<path id="Path_60" class="st0" d="M136.2,3.5h-8.6v17.3h-3.1V3.5h-5.3V0.6h17V3.5z"/>
		<path id="Path_61" class="st0" d="M155.4,20.8h-8.3c-3.3,0-5.6-0.6-6.9-1.9c-1.3-1.4-2-3.6-2-6.7V0.6h17.2v2.9h-14.2V9h13.4v2.8
			h-13.4v0.4c0,2.2,0.4,3.8,1.3,4.6c0.8,0.8,2.3,1.2,4.5,1.2h8.3V20.8z"/>
		<path id="Path_62" class="st0" d="M155.4,20.8h-8.3c-3.3,0-5.6-0.6-6.9-1.9c-1.3-1.4-2-3.6-2-6.7V0.6h17.2v2.9h-14.2V9h13.4v2.8
			h-13.4v0.4c0,2.2,0.4,3.8,1.3,4.6c0.8,0.8,2.3,1.2,4.5,1.2h8.3V20.8z"/>
		<path id="Path_63" class="st0" d="M173.6,20.8H168c-7,0-10.5-3.4-10.5-10.1C157.5,4,161,0.6,168,0.6h5.6v2.9H168
			c-1.7-0.1-3.4,0.3-4.9,1.1c-1.7,1.1-2.5,3.2-2.5,6.1s0.8,5,2.5,6c1.5,0.9,3.2,1.3,4.9,1.2h5.6V20.8z"/>
		<path id="Path_64" class="st0" d="M173.6,20.8H168c-7,0-10.5-3.4-10.5-10.1C157.5,4,161,0.6,168,0.6h5.6v2.9H168
			c-1.7-0.1-3.4,0.3-4.9,1.1c-1.7,1.1-2.5,3.2-2.5,6.1s0.8,5,2.5,6c1.5,0.9,3.2,1.3,4.9,1.2h5.6V20.8z"/>
		<path id="Path_65" class="st0" d="M193.9,20.8h-3.2v-8.9h-11v8.9h-3.2V0.6h3.2V9h11V0.6h3.2L193.9,20.8z"/>
		<path id="Path_66" class="st0" d="M193.9,20.8h-3.2v-8.9h-11v8.9h-3.2V0.6h3.2V9h11V0.6h3.2L193.9,20.8z"/>
		<rect id="Rectangle_332" x="114.9" y="10" class="st0" width="4.6" height="3.2"/>
		<rect id="Rectangle_333" x="114.9" y="10" class="st0" width="4.6" height="3.2"/>
	</g>
	<g id="Group_99" transform="translate(142.896 62.644)">
		<path id="Path_67" class="st1" d="M11.9,16.5H0V0.5h11.9v2.9H3v3.7h8.6v2.8H3v3.6h8.9V16.5z"/>
		<path id="Path_68" class="st1" d="M25.8,0.5h3v15.9h-1.9v0L18.6,5.7v10.7h-3V0.5H18l7.8,9.9L25.8,0.5z"/>
		<path id="Path_69" class="st1" d="M46.7,8.4c0.1,4-2.4,8.1-8,8.1h-6.2V0.5h6.2C44.2,0.5,46.6,4.4,46.7,8.4z M35.5,13.6h3.3
			c3.6,0,5-2.6,5-5.2c-0.1-2.5-1.5-5-5-5h-3.3V13.6z"/>
		<path id="Path_70" class="st1" d="M65.4,8.6c0,4.1-2.6,8.2-8.2,8.2s-8.2-4-8.2-8.2s2.7-8.4,8.2-8.4C62.8,0.2,65.5,4.4,65.4,8.6z
			 M52,8.7c0.1,2.6,1.5,5.4,5.2,5.4s5.2-2.8,5.2-5.4C62.5,6,61,3,57.3,3S52,6,52,8.7L52,8.7z"/>
		<path id="Path_71" class="st1" d="M78.6,4.4c-0.9-1.2-2.3-1.8-3.8-1.8c-2.2,0-3.3,0.9-3.3,2.1c0,1.4,1.6,1.8,3.5,2
			c3.3,0.4,6.4,1.3,6.4,5.1c0,3.5-3.1,5.1-6.7,5.1c-3.2,0-5.7-1-6.9-3.9l2.5-1.3c0.7,1.7,2.5,2.5,4.5,2.5c1.9,0,3.7-0.7,3.7-2.4
			c0-1.5-1.6-2.1-3.7-2.3c-3.2-0.4-6.2-1.2-6.2-4.8c0-3.3,3.2-4.6,6.2-4.6c2.5,0,5,0.7,6.2,3.2L78.6,4.4z"/>
		<path id="Path_72" class="st1" d="M98.9,14.5c-1.6,1.6-3.8,2.4-6,2.4c-5.9,0-8.4-4.1-8.4-8.2c-0.2-4.4,3.2-8.2,7.6-8.4
			c0.3,0,0.6,0,0.8,0c2.2,0,4.3,0.9,5.8,2.4l-2,1.9c-1-1-2.4-1.5-3.8-1.5C90,2.9,87.6,5.2,87.4,8c0,0.2,0,0.4,0,0.6
			c-0.2,2.8,2,5.2,4.8,5.4c0.2,0,0.5,0,0.7,0c1.5,0,2.9-0.6,4-1.6L98.9,14.5z"/>
		<path id="Path_73" class="st1" d="M116.7,8.6c0,4.1-2.6,8.2-8.2,8.2s-8.2-4-8.2-8.2s2.7-8.4,8.2-8.4C114,0.2,116.7,4.4,116.7,8.6z
			 M103.3,8.7c0.1,2.6,1.5,5.4,5.2,5.4s5.2-2.8,5.2-5.4c0-2.7-1.5-5.7-5.2-5.7S103.2,6,103.3,8.7L103.3,8.7z"/>
		<path id="Path_74" class="st1" d="M127.5,11.8H123v4.7h-3V0.5c2.5,0,5,0,7.5,0C135.3,0.5,135.3,11.8,127.5,11.8z M123,9h4.5
			c1.6,0,2.9-1.2,2.9-2.7c0-1.6-1.2-2.9-2.7-2.9c-0.1,0-0.1,0-0.2,0H123V9z"/>
		<path id="Path_75" class="st1" d="M143.2,7.1l4.2-6.6h3.6v0.1l-6.3,9.2v6.6h-3V9.9l-6.1-9.2V0.5h3.6L143.2,7.1z"/>
	</g>
	<g id="Group_100" transform="translate(319.891 7.298)">
		<path id="Path_76" class="st0" d="M10.1,4.9c0.1,2.8-2.1,5.2-4.9,5.3C2.5,10.3,0.1,8.1,0,5.3C-0.1,2.5,2.1,0.1,4.9,0
			C4.9,0,5,0,5.1,0C7.8-0.1,10.1,2.1,10.1,4.9C10.1,4.8,10.1,4.8,10.1,4.9z M1.3,4.9C1.2,7,2.9,8.7,5,8.7c0,0,0.1,0,0.1,0
			c2.1,0,3.8-1.7,3.8-3.7c0,0,0-0.1,0-0.1C8.9,2.8,7.3,1,5.2,1S1.3,2.6,1.3,4.7C1.3,4.7,1.3,4.8,1.3,4.9z M4.3,7.4H3.2V2.5
			c0.6-0.1,1.3-0.2,1.9-0.1c0.6,0,1.2,0.1,1.7,0.4C7.1,3,7.3,3.4,7.2,3.8c0,0.6-0.5,1-1,1.1V5c0.5,0.2,0.8,0.7,0.9,1.2
			c0,0.4,0.2,0.8,0.4,1.2H6.3C6.1,7,5.9,6.6,5.9,6.2c-0.1-0.5-0.4-0.8-1-0.8H4.3L4.3,7.4z M4.3,4.7h0.5C5.5,4.7,6,4.4,6,3.9
			C6,3.5,5.7,3.2,5,3.2c-0.2,0-0.4,0-0.6,0.1V4.7z"/>
	</g>
</g>
</svg>
